<svg height="24" width="24" viewBox="0 0 24 24" xmlns="http://www.w3.org/2000/svg" class="iconBlock-1wZMf" focusable="false" role="img" aria-hidden="true"><g fill="none" fill-rule="evenodd"><g fill="currentColor" fill-rule="evenodd" transform="translate(8 5)"><path d="m5.17 12.15c0 .6351275-.51487254 1.15-1.15 1.15s-1.15-.5148725-1.15-1.15.51487254-1.15 1.15-1.15 1.15.5148725 1.15 1.15z"></path><path d="m4.01920762 10c-.35740231-.00038235-1.51472275-.16673774-1.74515309-.40104854-.22387252-.24382345-.31678584-.55759207-.25569563-.86348505l1.83597871-7.73546641c.3574023.00038235 1.64117752.19579794 1.87160786.43010875.22387252.24382345.31678584.55759207.25569563.86348505z" transform="matrix(-.97029573 .2419219 -.2419219 -.97029573 9.211753 9.868939)"></path></g><circle cx="12" cy="12" r="11" stroke="currentColor" stroke-width="2"></circle></g></svg>