<svg height="24" width="24" viewBox="0 0 24 24" xmlns="http://www.w3.org/2000/svg" class="installment-payments_tooltipIcon__5K1qQ" focusable="false" role="img" aria-hidden="true"><g fill="none" fill-rule="evenodd" stroke="currentColor"><circle cx="12" cy="12" r="11" stroke-width="2"></circle><g fill="currentColor" fill-rule="evenodd" transform="translate(10.25 6)"><path d="m3.3 1.15c0 .63512746-.51487254 1.15-1.15 1.15s-1.15-.51487254-1.15-1.15.51487254-1.15 1.15-1.15 1.15.51487254 1.15 1.15z"></path><path d="m2.06769231 9.88461538h1.16307692v.53846152c0 .5947682-.48215488 1.0769231-1.07692308 1.0769231h-1.07692307c-.2408456-.0003004-.46933342-.1066654-.62461539-.2907692-.15086279-.1915781-.21347505-.4381139-.17230769-.6784616l.88307692-4.41538458h-1.16307692v-.53846154c0-.5947682.48215489-1.07692308 1.07692308-1.07692308h1.07692307c.24084561.00030042.46933342.10666544.62461539.29076923.15086279.19157811.21347505.43811387.17230769.67846154z"></path></g></g></svg>